{"accessors":[{"bufferView":0,"componentType":5125,"count":324,"max":[139.0],"min":[0.0],"type":"SCALAR"},{"bufferView":1,"componentType":5126,"count":140,"max":[0.4347112774848938,1.6033464670181275,0.48556429147720339],"min":[-0.4347112774848938,0.005577427800744772,-8.881784197001253e-16],"type":"VEC3"},{"bufferView":2,"componentType":5126,"count":140,"max":[1.0,1.0,1.0],"min":[-1.0,-1.0,-1.0],"type":"VEC3"},{"bufferView":3,"componentType":5125,"count":324,"max":[139.0],"min":[0.0],"type":"SCALAR"},{"bufferView":4,"componentType":5126,"count":140,"max":[0.31167978048324587,0.46259841322898867,0.682414710521698],"min":[-0.31167978048324587,0.06889763474464417,0.6758530139923096],"type":"VEC3"},{"bufferView":5,"componentType":5126,"count":140,"max":[1.0,1.0,1.0],"min":[-1.0,-1.0,-1.0],"type":"VEC3"},{"bufferView":6,"componentType":5125,"count":276,"max":[109.0],"min":[0.0],"type":"SCALAR"},{"bufferView":7,"componentType":5126,"count":110,"max":[0.2780511677265167,0.32234251499176028,0.7168635129928589],"min":[0.1615813672542572,0.20587269961833955,0.682414710521698],"type":"VEC3"},{"bufferView":8,"componentType":5126,"count":110,"max":[1.0,1.0,1.0],"min":[-1.0,-1.0,-1.0],"type":"VEC3"},{"bufferView":9,"componentType":5125,"count":552,"max":[220.0],"min":[0.0],"type":"SCALAR"},{"bufferView":10,"componentType":5126,"count":221,"max":[-0.21079395711421967,0.36007216572761538,0.6873359680175781],"min":[-0.2747703492641449,0.16814304888248444,0.682414710521698],"type":"VEC3"},{"bufferView":11,"componentType":5126,"count":221,"max":[1.0,1.0,1.0],"min":[-1.0,-1.0,-1.0],"type":"VEC3"},{"bufferView":12,"componentType":5125,"count":1104,"max":[443.0],"min":[0.0],"type":"SCALAR"},{"bufferView":13,"componentType":5126,"count":444,"max":[0.32972440123558047,0.005577427800744772,0.4511154890060425],"min":[-0.2608267664909363,-0.004265091847628355,0.046268973499536517],"type":"VEC3"},{"bufferView":14,"componentType":5126,"count":444,"max":[1.0,1.0,1.0],"min":[-1.0,-1.0,-1.0],"type":"VEC3"},{"bufferView":15,"componentType":5125,"count":552,"max":[219.0],"min":[0.0],"type":"SCALAR"},{"bufferView":16,"componentType":5126,"count":220,"max":[0.054133858531713489,-0.004265091847628355,0.16437920928001405],"min":[-0.21489500999450684,-0.23064304888248444,0.09220073372125626],"type":"VEC3"},{"bufferView":17,"componentType":5126,"count":220,"max":[1.0,1.0,1.0],"min":[-1.0,-1.0,-1.0],"type":"VEC3"},{"bufferView":18,"componentType":5125,"count":552,"max":[219.0],"min":[0.0],"type":"SCALAR"},{"bufferView":19,"componentType":5126,"count":220,"max":[0.283792644739151,-0.004265091847628355,0.40518373250961306],"min":[0.014763779938220978,-0.13221785426139832,0.32808399200439455],"type":"VEC3"},{"bufferView":20,"componentType":5126,"count":220,"max":[1.0,1.0,1.0],"min":[-1.0,-1.0,-1.0],"type":"VEC3"},{"bufferView":21,"componentType":5125,"count":552,"max":[221.0],"min":[0.0],"type":"SCALAR"},{"bufferView":22,"componentType":5126,"count":222,"max":[0.055774278938770297,1.609908103942871,0.190288707613945],"min":[-0.190288707613945,1.6033464670181275,0.0754593163728714],"type":"VEC3"},{"bufferView":23,"componentType":5126,"count":222,"max":[1.0,1.0,1.0],"min":[-1.0,-1.0,-1.0],"type":"VEC3"},{"bufferView":24,"componentType":5125,"count":276,"max":[109.0],"min":[0.0],"type":"SCALAR"},{"bufferView":25,"componentType":5126,"count":110,"max":[-0.11729002743959427,1.6387795209884644,0.14845800399780274],"min":[-0.14845800399780274,1.609908103942871,0.11729002743959427],"type":"VEC3"},{"bufferView":26,"componentType":5126,"count":110,"max":[1.0,1.0,1.0],"min":[-1.0,-1.0,-1.0],"type":"VEC3"},{"bufferView":27,"componentType":5125,"count":276,"max":[109.0],"min":[0.0],"type":"SCALAR"},{"bufferView":28,"componentType":5126,"count":110,"max":[0.008776246570050717,1.6486220359802247,0.1432906836271286],"min":[-0.012057086452841759,1.609908103942871,0.1224573478102684],"type":"VEC3"},{"bufferView":29,"componentType":5126,"count":110,"max":[1.0,1.0,1.0],"min":[-1.0,-1.0,-1.0],"type":"VEC3"},{"bufferView":30,"componentType":5125,"count":36,"max":[23.0],"min":[0.0],"type":"SCALAR"},{"bufferView":31,"componentType":5126,"count":24,"max":[0.15646512806415559,0.3339610993862152,0.6840550899505615],"min":[-0.17161884903907777,0.2027275115251541,0.682414710521698],"type":"VEC3"},{"bufferView":32,"componentType":5126,"count":24,"max":[0.9999996423721314,1.0,0.9999998807907105],"min":[-0.9999999403953552,-1.0,-0.9999998807907105],"type":"VEC3"},{"bufferView":33,"componentType":5125,"count":1752,"max":[707.0],"min":[0.0],"type":"SCALAR"},{"bufferView":34,"componentType":5126,"count":708,"max":[0.4396325349807739,1.614173173904419,0.6889764070510864],"min":[-0.4396325349807739,-1.7588838405855455e-25,0.41900551319122317],"type":"VEC3"},{"bufferView":35,"componentType":5126,"count":708,"max":[1.0,1.0,1.0],"min":[-1.0,-1.0,-1.0],"type":"VEC3"},{"bufferView":36,"componentType":5125,"count":546,"max":[240.0],"min":[0.0],"type":"SCALAR"},{"bufferView":37,"componentType":5126,"count":241,"max":[-0.24969716370105744,1.6929134130477906,0.11349181085824967],"min":[-0.33757317066192629,1.6033464670181275,0.02561579830944538],"type":"VEC3"},{"bufferView":38,"componentType":5126,"count":241,"max":[1.0,1.0,1.0],"min":[-1.0,-1.0,-1.0],"type":"VEC3"},{"bufferView":39,"componentType":5125,"count":750,"max":[310.0],"min":[0.0],"type":"SCALAR"},{"bufferView":40,"componentType":5126,"count":311,"max":[0.02460629865527153,1.833661437034607,0.15912073850631715],"min":[-0.027887139469385148,1.6486220359802247,0.10662729293107987],"type":"VEC3"},{"bufferView":41,"componentType":5126,"count":311,"max":[1.0,1.0,1.0],"min":[-1.0,-1.0,-1.0],"type":"VEC3"},{"bufferView":42,"componentType":5125,"count":648,"max":[273.0],"min":[0.0],"type":"SCALAR"},{"bufferView":43,"componentType":5126,"count":274,"max":[-0.09022309631109238,1.7660760879516602,0.17552493512630464],"min":[-0.17552493512630464,1.6387795209884644,0.09022309631109238],"type":"VEC3"},{"bufferView":44,"componentType":5126,"count":274,"max":[1.0,1.0,1.0],"min":[-1.0,-1.0,-1.0],"type":"VEC3"},{"bufferView":45,"componentType":5125,"count":786,"max":[328.0],"min":[0.0],"type":"SCALAR"},{"bufferView":46,"componentType":5126,"count":329,"max":[0.08366141468286514,1.7837926149368287,0.4511154890060425],"min":[-0.08038057386875153,1.6033464670181275,0.2870734930038452],"type":"VEC3"},{"bufferView":47,"componentType":5126,"count":329,"max":[1.0,1.0,1.0],"min":[-1.0,-1.0,-1.0],"type":"VEC3"},{"bufferView":48,"componentType":5125,"count":72,"max":[53.0],"min":[1.0],"type":"SCALAR"},{"bufferView":49,"componentType":5126,"count":54,"max":[-0.3559711277484894,1.6263123750686646,0.4560367465019226],"min":[-0.3822178542613983,1.6033464670181275,0.42979001998901369],"type":"VEC3"},{"bufferView":50,"componentType":5126,"count":54,"max":[0.9999996423721314,1.0,0.9999998807907105],"min":[-0.9999999403953552,-1.0,-0.9999998807907105],"type":"VEC3"},{"bufferView":51,"componentType":5125,"count":72,"max":[53.0],"min":[0.0],"type":"SCALAR"},{"bufferView":52,"componentType":5126,"count":54,"max":[0.3822178542613983,1.6263123750686646,0.4560367465019226],"min":[0.3559711277484894,1.6033464670181275,0.42979001998901369],"type":"VEC3"},{"bufferView":53,"componentType":5126,"count":54,"max":[0.9999996423721314,1.0,0.9999998807907105],"min":[-0.9999999403953552,-1.0,-0.9999998807907105],"type":"VEC3"},{"bufferView":54,"componentType":5125,"count":1296,"max":[675.0],"min":[0.0],"type":"SCALAR"},{"bufferView":55,"componentType":5126,"count":676,"max":[0.10972564667463303,0.5324654579162598,0.6891732215881348],"min":[-0.06350269913673401,0.5167174339294434,0.6889764070510864],"type":"VEC3"},{"bufferView":56,"componentType":5126,"count":676,"max":[1.0,1.0,1.0],"min":[-1.0,-1.0,-1.0],"type":"VEC3"},{"bufferView":57,"componentType":5125,"count":4260,"max":[1760.0],"min":[0.0],"type":"SCALAR"},{"bufferView":58,"componentType":5126,"count":1761,"max":[0.1312336027622223,0.0549321249127388,0.0032808398827910425],"min":[-0.1312336027622223,0.0035097107756882908,3.8510861166685119e-16],"type":"VEC3"},{"bufferView":59,"componentType":5126,"count":1761,"max":[1.0,1.0,1.0],"min":[-1.0,-1.0,-1.0],"type":"VEC3"}],"asset":{"generator":"SimLab GLTF","version":"2.0"},"bufferViews":[{"buffer":0,"byteLength":1296,"target":34963},{"buffer":0,"byteLength":1680,"byteOffset":1296,"byteStride":12,"target":34962},{"buffer":0,"byteLength":1680,"byteOffset":2976,"byteStride":12,"target":34962},{"buffer":0,"byteLength":1296,"byteOffset":4656,"target":34963},{"buffer":0,"byteLength":1680,"byteOffset":5952,"byteStride":12,"target":34962},{"buffer":0,"byteLength":1680,"byteOffset":7632,"byteStride":12,"target":34962},{"buffer":0,"byteLength":1104,"byteOffset":9312,"target":34963},{"buffer":0,"byteLength":1320,"byteOffset":10416,"byteStride":12,"target":34962},{"buffer":0,"byteLength":1320,"byteOffset":11736,"byteStride":12,"target":34962},{"buffer":0,"byteLength":2208,"byteOffset":13056,"target":34963},{"buffer":0,"byteLength":2652,"byteOffset":15264,"byteStride":12,"target":34962},{"buffer":0,"byteLength":2652,"byteOffset":17916,"byteStride":12,"target":34962},{"buffer":0,"byteLength":4416,"byteOffset":20568,"target":34963},{"buffer":0,"byteLength":5328,"byteOffset":24984,"byteStride":12,"target":34962},{"buffer":0,"byteLength":5328,"byteOffset":30312,"byteStride":12,"target":34962},{"buffer":0,"byteLength":2208,"byteOffset":35640,"target":34963},{"buffer":0,"byteLength":2640,"byteOffset":37848,"byteStride":12,"target":34962},{"buffer":0,"byteLength":2640,"byteOffset":40488,"byteStride":12,"target":34962},{"buffer":0,"byteLength":2208,"byteOffset":43128,"target":34963},{"buffer":0,"byteLength":2640,"byteOffset":45336,"byteStride":12,"target":34962},{"buffer":0,"byteLength":2640,"byteOffset":47976,"byteStride":12,"target":34962},{"buffer":0,"byteLength":2208,"byteOffset":50616,"target":34963},{"buffer":0,"byteLength":2664,"byteOffset":52824,"byteStride":12,"target":34962},{"buffer":0,"byteLength":2664,"byteOffset":55488,"byteStride":12,"target":34962},{"buffer":0,"byteLength":1104,"byteOffset":58152,"target":34963},{"buffer":0,"byteLength":1320,"byteOffset":59256,"byteStride":12,"target":34962},{"buffer":0,"byteLength":1320,"byteOffset":60576,"byteStride":12,"target":34962},{"buffer":0,"byteLength":1104,"byteOffset":61896,"target":34963},{"buffer":0,"byteLength":1320,"byteOffset":63000,"byteStride":12,"target":34962},{"buffer":0,"byteLength":1320,"byteOffset":64320,"byteStride":12,"target":34962},{"buffer":0,"byteLength":144,"byteOffset":65640,"target":34963},{"buffer":0,"byteLength":288,"byteOffset":65784,"byteStride":12,"target":34962},{"buffer":0,"byteLength":288,"byteOffset":66072,"byteStride":12,"target":34962},{"buffer":0,"byteLength":7008,"byteOffset":66360,"target":34963},{"buffer":0,"byteLength":8496,"byteOffset":73368,"byteStride":12,"target":34962},{"buffer":0,"byteLength":8496,"byteOffset":81864,"byteStride":12,"target":34962},{"buffer":0,"byteLength":2184,"byteOffset":90360,"target":34963},{"buffer":0,"byteLength":2892,"byteOffset":92544,"byteStride":12,"target":34962},{"buffer":0,"byteLength":2892,"byteOffset":95436,"byteStride":12,"target":34962},{"buffer":0,"byteLength":3000,"byteOffset":98328,"target":34963},{"buffer":0,"byteLength":3732,"byteOffset":101328,"byteStride":12,"target":34962},{"buffer":0,"byteLength":3732,"byteOffset":105060,"byteStride":12,"target":34962},{"buffer":0,"byteLength":2592,"byteOffset":108792,"target":34963},{"buffer":0,"byteLength":3288,"byteOffset":111384,"byteStride":12,"target":34962},{"buffer":0,"byteLength":3288,"byteOffset":114672,"byteStride":12,"target":34962},{"buffer":0,"byteLength":3144,"byteOffset":117960,"target":34963},{"buffer":0,"byteLength":3948,"byteOffset":121104,"byteStride":12,"target":34962},{"buffer":0,"byteLength":3948,"byteOffset":125052,"byteStride":12,"target":34962},{"buffer":0,"byteLength":288,"byteOffset":129000,"target":34963},{"buffer":0,"byteLength":648,"byteOffset":129288,"byteStride":12,"target":34962},{"buffer":0,"byteLength":648,"byteOffset":129936,"byteStride":12,"target":34962},{"buffer":0,"byteLength":288,"byteOffset":130584,"target":34963},{"buffer":0,"byteLength":648,"byteOffset":130872,"byteStride":12,"target":34962},{"buffer":0,"byteLength":648,"byteOffset":131520,"byteStride":12,"target":34962},{"buffer":0,"byteLength":5184,"byteOffset":132168,"target":34963},{"buffer":0,"byteLength":8112,"byteOffset":137352,"byteStride":12,"target":34962},{"buffer":0,"byteLength":8112,"byteOffset":145464,"byteStride":12,"target":34962},{"buffer":0,"byteLength":17040,"byteOffset":153576,"target":34963},{"buffer":0,"byteLength":21132,"byteOffset":170616,"byteStride":12,"target":34962},{"buffer":0,"byteLength":21132,"byteOffset":191748,"byteStride":12,"target":34962}],"buffers":[{"byteLength":212880,"uri":"Elga Ace.bin"}],"materials":[{"name":"R216,G216,B216","alphaMode":"MASK","doubleSided":true,"pbrMetallicRoughness":{"baseColorFactor":[0.847058892250061,0.847058892250061,0.847058892250061,1.0],"metallicFactor":0.0}},{"name":"R26,G26,B26","alphaMode":"MASK","doubleSided":true,"pbrMetallicRoughness":{"baseColorFactor":[0.10196079313755036,0.10196079313755036,0.10196079313755036,1.0],"metallicFactor":0.0}},{"name":"R160,G95,B41","alphaMode":"MASK","doubleSided":true,"pbrMetallicRoughness":{"baseColorFactor":[0.6274510025978088,0.37254902720451357,0.16078431904315949,1.0],"metallicFactor":0.0}},{"name":"R80,G80,B80","alphaMode":"MASK","doubleSided":true,"pbrMetallicRoughness":{"baseColorFactor":[0.3137255012989044,0.3137255012989044,0.3137255012989044,1.0],"metallicFactor":0.0}},{"name":"R208,G181,B70","alphaMode":"MASK","doubleSided":true,"pbrMetallicRoughness":{"baseColorFactor":[0.8156863451004028,0.7098039388656616,0.27450981736183169,1.0],"metallicFactor":0.0}},{"name":"R106,G106,B106","alphaMode":"MASK","doubleSided":true,"pbrMetallicRoughness":{"baseColorFactor":[0.41568630933761599,0.41568630933761599,0.41568630933761599,1.0],"metallicFactor":0.0}}],"meshes":[{"primitives":[{"attributes":{"NORMAL":2,"POSITION":1},"indices":0,"material":0,"mode":4}]},{"primitives":[{"attributes":{"NORMAL":5,"POSITION":4},"indices":3,"material":1,"mode":4}]},{"primitives":[{"attributes":{"NORMAL":8,"POSITION":7},"indices":6,"material":1,"mode":4}]},{"primitives":[{"attributes":{"NORMAL":11,"POSITION":10},"indices":9,"material":1,"mode":4}]},{"primitives":[{"attributes":{"NORMAL":14,"POSITION":13},"indices":12,"material":1,"mode":4}]},{"primitives":[{"attributes":{"NORMAL":17,"POSITION":16},"indices":15,"material":2,"mode":4}]},{"primitives":[{"attributes":{"NORMAL":20,"POSITION":19},"indices":18,"material":2,"mode":4}]},{"primitives":[{"attributes":{"NORMAL":23,"POSITION":22},"indices":21,"material":1,"mode":4}]},{"primitives":[{"attributes":{"NORMAL":26,"POSITION":25},"indices":24,"material":2,"mode":4}]},{"primitives":[{"attributes":{"NORMAL":29,"POSITION":28},"indices":27,"material":2,"mode":4}]},{"primitives":[{"attributes":{"NORMAL":32,"POSITION":31},"indices":30,"material":3,"mode":4}]},{"primitives":[{"attributes":{"NORMAL":35,"POSITION":34},"indices":33,"material":0,"mode":4}]},{"primitives":[{"attributes":{"NORMAL":38,"POSITION":37},"indices":36,"material":1,"mode":4}]},{"primitives":[{"attributes":{"NORMAL":41,"POSITION":40},"indices":39,"material":4,"mode":4}]},{"primitives":[{"attributes":{"NORMAL":44,"POSITION":43},"indices":42,"material":4,"mode":4}]},{"primitives":[{"attributes":{"NORMAL":47,"POSITION":46},"indices":45,"material":1,"mode":4}]},{"primitives":[{"attributes":{"NORMAL":50,"POSITION":49},"indices":48,"material":0,"mode":4}]},{"primitives":[{"attributes":{"NORMAL":53,"POSITION":52},"indices":51,"material":0,"mode":4}]},{"primitives":[{"attributes":{"NORMAL":56,"POSITION":55},"indices":54,"material":5,"mode":4}]},{"primitives":[{"attributes":{"NORMAL":59,"POSITION":58},"indices":57,"material":5,"mode":4}]}],"nodes":[{"children":[1,2],"matrix":[1.0,0.0,0.0,0.0,0.0,4.4896593387466768e-11,-1.0,0.0,0.0,1.0,4.4896593387466768e-11,0.0,0.0,0.0,0.0,1.0]},{"name":"Camera-12","rotation":[-0.7071067690849304,0.0,0.0,-0.7071067690849304],"translation":[0.0,-2.6260499954223635,0.2443000078201294]},{"name":"Assembly-83","children":[3],"rotation":[0.0,0.0,0.0,-1.0],"scale":[0.0010000000474974514,0.0010000000474974514,0.0010000000474974514]},{"children":[4,108],"rotation":[-0.7071067690849304,0.0,0.0,-0.7071067690849304],"scale":[304.79998779296877,304.79998779296877,304.79998779296877]},{"name":"Equipment (19)","children":[5,63,91,102],"rotation":[0.0,0.0,0.0,-1.0]},{"name":"Extrusion (11)","children":[6,12,18,23,28,33,38,43,48,53,58],"rotation":[0.0,0.0,0.0,-1.0]},{"name":"[2784]","children":[7,10,11],"rotation":[0.0,0.0,0.0,-1.0]},{"children":[9],"rotation":[0.0,0.0,0.0,-1.0]},{"mesh":0},{"children":[8]},{"rotation":[0.0,0.0,0.0,-1.0]},{"rotation":[0.0,0.0,0.0,-1.0]},{"name":"[7976]","children":[13,16,17],"rotation":[0.0,0.0,0.0,-1.0]},{"children":[15],"rotation":[0.0,0.0,0.0,-1.0]},{"mesh":1},{"children":[14]},{"rotation":[0.0,0.0,0.0,-1.0]},{"rotation":[0.0,0.0,0.0,-1.0]},{"name":"[8206]","children":[19,22],"rotation":[0.0,0.0,0.0,-1.0]},{"children":[21],"rotation":[0.0,0.0,0.0,-1.0]},{"mesh":2},{"children":[20]},{"rotation":[0.0,0.0,0.0,-1.0]},{"name":"[9240]","children":[24,27],"rotation":[0.0,0.0,0.0,-1.0]},{"children":[26],"rotation":[0.0,0.0,0.0,-1.0]},{"mesh":3},{"children":[25]},{"rotation":[0.0,0.0,0.0,-1.0]},{"name":"[10552]","children":[29,32],"rotation":[0.0,0.0,0.0,-1.0]},{"children":[31],"rotation":[0.0,0.0,0.0,-1.0]},{"mesh":4},{"children":[30]},{"rotation":[0.0,0.0,0.0,-1.0]},{"name":"[13123]","children":[34,37],"rotation":[0.0,0.0,0.0,-1.0]},{"children":[36],"rotation":[0.0,0.0,0.0,-1.0]},{"mesh":5},{"children":[35]},{"rotation":[0.0,0.0,0.0,-1.0]},{"name":"[13540]","children":[39,42],"rotation":[0.0,0.0,0.0,-1.0]},{"children":[41],"rotation":[0.0,0.0,0.0,-1.0]},{"mesh":6},{"children":[40]},{"rotation":[0.0,0.0,0.0,-1.0]},{"name":"[16158]","children":[44,47],"rotation":[0.0,0.0,0.0,-1.0]},{"children":[46],"rotation":[0.0,0.0,0.0,-1.0]},{"mesh":7},{"children":[45]},{"rotation":[0.0,0.0,0.0,-1.0]},{"name":"[16560]","children":[49,52],"rotation":[0.0,0.0,0.0,-1.0]},{"children":[51],"rotation":[0.0,0.0,0.0,-1.0]},{"mesh":8},{"children":[50]},{"rotation":[0.0,0.0,0.0,-1.0]},{"name":"[19426]","children":[54,57],"rotation":[0.0,0.0,0.0,-1.0]},{"children":[56],"rotation":[0.0,0.0,0.0,-1.0]},{"mesh":9},{"children":[55]},{"rotation":[0.0,0.0,0.0,-1.0]},{"name":"[21874]","children":[59,62],"rotation":[0.0,0.0,0.0,-1.0]},{"children":[61],"rotation":[0.0,0.0,0.0,-1.0]},{"mesh":10},{"children":[60]},{"rotation":[0.0,0.0,0.0,-1.0]},{"name":"Joined Solid Geometry (5)","children":[64,70,75,80,85],"rotation":[0.0,0.0,0.0,-1.0]},{"name":"[7957]","children":[65,68,69],"rotation":[0.0,0.0,0.0,-1.0]},{"children":[67],"rotation":[0.0,0.0,0.0,-1.0]},{"mesh":11},{"children":[66]},{"rotation":[0.0,0.0,0.0,-1.0]},{"rotation":[0.0,0.0,0.0,-1.0]},{"name":"[16155]","children":[71,74],"rotation":[0.0,0.0,0.0,-1.0]},{"children":[73],"rotation":[0.0,0.0,0.0,-1.0]},{"mesh":12},{"children":[72]},{"rotation":[0.0,0.0,0.0,-1.0]},{"name":"[36914]","children":[76,79],"rotation":[0.0,0.0,0.0,-1.0]},{"children":[78],"rotation":[0.0,0.0,0.0,-1.0]},{"mesh":13},{"children":[77]},{"rotation":[0.0,0.0,0.0,-1.0]},{"name":"[36915]","children":[81,84],"rotation":[0.0,0.0,0.0,-1.0]},{"children":[83],"rotation":[0.0,0.0,0.0,-1.0]},{"mesh":14},{"children":[82]},{"rotation":[0.0,0.0,0.0,-1.0]},{"name":"[36916]","children":[86,89,90],"rotation":[0.0,0.0,0.0,-1.0]},{"children":[88],"rotation":[0.0,0.0,0.0,-1.0]},{"mesh":15},{"children":[87]},{"rotation":[0.0,0.0,0.0,-1.0]},{"rotation":[0.0,0.0,0.0,-1.0]},{"name":"Revolve (2)","children":[92,97],"rotation":[0.0,0.0,0.0,-1.0]},{"name":"[9973]","children":[93,96],"rotation":[0.0,0.0,0.0,-1.0]},{"children":[95],"rotation":[0.0,0.0,0.0,-1.0]},{"mesh":16},{"children":[94]},{"rotation":[0.0,0.0,0.0,-1.0]},{"name":"[10539]","children":[98,101],"rotation":[0.0,0.0,0.0,-1.0]},{"children":[100],"rotation":[0.0,0.0,0.0,-1.0]},{"mesh":17},{"children":[99]},{"rotation":[0.0,0.0,0.0,-1.0]},{"name":"Free Form Element (1)","children":[103,106,107],"rotation":[0.0,0.0,0.0,-1.0]},{"children":[105],"rotation":[0.0,0.0,0.0,-1.0]},{"mesh":18},{"children":[104]},{"rotation":[0.0,0.0,0.0,-1.0]},{"rotation":[0.0,0.0,0.0,-1.0]},{"name":"Mechanical Equipment (1)","children":[109],"rotation":[0.0,0.0,0.0,-1.0]},{"name":"Logo [32643]","children":[110],"rotation":[0.0,0.0,0.0,-1.0],"translation":[-0.012303149327635765,0.549848198890686,0.6889764070510864]},{"children":[111,114,115],"rotation":[0.0,0.0,0.0,-1.0]},{"children":[113],"rotation":[0.0,0.0,0.0,-1.0]},{"mesh":19},{"children":[112]},{"rotation":[0.0,0.0,0.0,-1.0]},{"rotation":[0.0,0.0,0.0,-1.0]}],"scene":0,"scenes":[{"nodes":[0]}]}